# xmcd
#
# Track frame offsets: 
#        182
#        31775
#        53850
#        91497
#        107850
#        125397
#        139205
#        185385
#        204687
#        223900
#        244452
#        271115
#
# Disc length: 3930 seconds
#
# Revision: 0
# Processed by: cddbd v1.5.2PL0 Copyright (c) Steve Scherf et al.
# Submitted via: ExactAudioCopy v0.95b4
#
DISCID=b60f580c
DTITLE=Black Ivory - Hangin' Heavy
DYEAR=1991
DGENRE=R&B
TTITLE0=Mainline
TTITLE1=Dance
TTITLE2=Walkin' Downtown
TTITLE3=Longer Ride
TTITLE4=You Mean Everything To Me
TTITLE5=Can't You See
TTITLE6=Big Apple Rock
TTITLE7=Get Down (Comin' Down)
TTITLE8=Peace and Harmony
TTITLE9=Rest Inside My Love
TTITLE10=Hustlin' (You Gotta Be Dancin')
TTITLE11=You Turned My Whole World Around
EXTD=
EXTT0=
EXTT1=
EXTT2=
EXTT3=
EXTT4=
EXTT5=
EXTT6=
EXTT7=
EXTT8=
EXTT9=
EXTT10=
EXTT11=
PLAYORDER=
